<svg xmlns="http://www.w3.org/2000/svg" xmlns:xlink="http://www.w3.org/1999/xlink" version="1.1" x="0px" y="0px" viewBox="0 0 100 100" enable-background="new 0 0 100 100" xml:space="preserve"><path d="M92.71,11.725c-35.987-9.259-42.068,3.535-42.8,5.594c-0.728-2.059-6.785-14.853-42.772-5.594L0,24.802v59.886l41.876-2.464  c0,0,2.063,2.373,8.124,2.456v0.008c0,0-0.087-0.005-0.052-0.005c0.07,0.001-0.019,0.005,0.052,0.005v-0.016  c5.646-0.088,8.124-2.448,8.124-2.448L100,84.688V24.802L92.71,11.725z M89,13.81v55.591c0,0-28-7.202-37,4.043  c0,0,0-46.736,0-48.516C52,22.566,50,4.486,89,13.81z M3,25.812l5-8.717v52.812l-5,9.097V25.812z M43.21,79.003L5.749,81.656  l4.358-9.223c0,0,37.146-9.728,38.282,9.223C48.389,81.656,45.736,82.288,43.21,79.003z M48,24.927c0,1.78,0,48.516,0,48.516  c-9-11.244-37-4.043-37-4.043V13.81C50,4.486,48,22.566,48,24.927z M56.298,79.003c-2.527,3.284-5.179,2.653-5.179,2.653  c1.136-18.952,38.282-9.223,38.282-9.223l4.358,9.223L56.298,79.003z M97,79.003l-5-9.097V17.095l5,8.717V79.003z"/></svg>