<?xml version="1.0" standalone="no"?>
<!DOCTYPE svg PUBLIC "-//W3C//DTD SVG 20010904//EN"
 "http://www.w3.org/TR/2001/REC-SVG-20010904/DTD/svg10.dtd">
<svg version="1.0" xmlns="http://www.w3.org/2000/svg"
 width="1280.000000pt" height="824.000000pt" viewBox="0 0 1280.000000 824.000000"
 preserveAspectRatio="xMidYMid meet">
<metadata>
Created by potrace 1.15, written by Peter Selinger 2001-2017
</metadata>
<g transform="translate(0.000000,824.000000) scale(0.100000,-0.100000)"
fill="#009688" stroke="none">
<path d="M4530 8236 c0 -2 265 -462 588 -1022 l588 -1019 -2421 -3 -2422 -2
-7 -940 c-4 -517 -4 -1421 0 -2009 l7 -1069 641 -6 c353 -3 1458 -11 2455 -16
998 -6 1816 -12 1818 -14 2 -1 -15 -43 -38 -92 -95 -204 -931 -2020 -936
-2031 -4 -10 25 -13 127 -13 l132 0 2551 1509 c1404 829 2860 1690 3237 1913
1203 710 1359 803 1360 809 0 4 -341 191 -757 417 -417 225 -2082 1126 -3700
2001 l-2941 1591 -141 0 c-78 0 -141 -2 -141 -4z"/>
</g>
</svg>
