<svg xmlns="http://www.w3.org/2000/svg" viewBox="0 0 256 256">
    <path fill="#ea3700" d="M 41.844434,111.64947 C 67.994044,99.650433 95.244721,101.59828 123.41425,115.185 L 145.38507,37.403263 C 119.14227,24.290995 92.230749,18.534685 63.310174,34.877883 l -21.46574,76.771587 z"/>
    <path fill="#7dc800" d="m 152.2805,39.322279 c 37.12442,16.941206 63.60564,10.953386 83.60063,5.494562 l -21.41497,74.560029 c -38.65877,18.80476 -61.76395,6.73289 -84.40902,-1.76777 L 152.2805,39.322279 z"/>
    <path fill="#ffc700" d="m 128.28937,124.68017 c 24.84913,10.47379 50.99998,17.04241 83.84266,3.53553 l -26.5165,84.85282 c -31.32181,15.69984 -55.19162,10.42629 -81.82236,-2.02031 l 24.4962,-86.36804 z"/>
    <path fill="#4342e7" d="m 15.404826,205.49237 c 26.467815,-13.7934 53.756651,-10.75585 81.569818,3.03046 L 121.47084,121.90225 C 110.18433,116.74609 84.247882,102.5856 39.143411,120.8921 l -23.738585,84.60027 z"/>
</svg>