<?xml version="1.0" encoding="UTF-8" standalone="no"?>
<!-- Created with Inkscape (http://www.inkscape.org/) -->
<svg xmlns:dc="http://purl.org/dc/elements/1.1/" xmlns:cc="http://creativecommons.org/ns#" xmlns:rdf="http://www.w3.org/1999/02/22-rdf-syntax-ns#" xmlns:svg="http://www.w3.org/2000/svg" xmlns="http://www.w3.org/2000/svg" xmlns:sodipodi="http://sodipodi.sourceforge.net/DTD/sodipodi-0.dtd" xmlns:inkscape="http://www.inkscape.org/namespaces/inkscape" width="439.99994" height="800" viewBox="0 0 439.99995 800" id="svg2" version="1.1" inkscape:version="0.91+devel r13708 custom" sodipodi:docname="precisionrecall.svg">
  <defs id="defs4">
    <marker inkscape:stockid="Arrow1Lend" orient="auto" refY="0" refX="0" id="Arrow1Lend" style="overflow:visible" inkscape:isstock="true">
      <path id="path4825" d="M 0,0 5,-5 -12.5,0 5,5 0,0 Z" style="fill-rule:evenodd;stroke:#000000;stroke-width:1.00000003pt" transform="matrix(-0.8,0,0,-0.8,-10,0)" inkscape:connector-curvature="0"/>
    </marker>
  </defs>
  <sodipodi:namedview id="base" pagecolor="#ffffff" bordercolor="#666666" borderopacity="1.0" inkscape:pageopacity="0.0" inkscape:pageshadow="2" inkscape:zoom="0.35" inkscape:cx="-226.56404" inkscape:cy="157.96304" inkscape:document-units="px" inkscape:current-layer="layer1" showgrid="false" inkscape:snap-object-midpoints="true" inkscape:snap-text-baseline="true" inkscape:snap-intersection-paths="true" inkscape:object-paths="true" inkscape:object-nodes="true" inkscape:snap-smooth-nodes="true" inkscape:snap-midpoints="true" inkscape:window-width="1366" inkscape:window-height="741" inkscape:window-x="0" inkscape:window-y="27" inkscape:window-maximized="1" fit-margin-top="0" fit-margin-left="0" fit-margin-right="0" fit-margin-bottom="0" inkscape:snap-global="true" inkscape:snap-center="true">
    <inkscape:grid type="xygrid" id="grid3336" originx="-1600.0001px" originy="-220px"/>
  </sodipodi:namedview>
  <metadata id="metadata7">
    <rdf:RDF>
      <cc:Work rdf:about="">
        <dc:format>image/svg+xml</dc:format>
        <dc:type rdf:resource="http://purl.org/dc/dcmitype/StillImage"/>
        <dc:title/>
      </cc:Work>
    </rdf:RDF>
  </metadata>
  <g inkscape:label="Ebene 1" inkscape:groupmode="layer" id="layer1" transform="translate(-1526.4584,31.708324)">
    <rect style="color:#000000;clip-rule:nonzero;display:inline;overflow:visible;visibility:visible;opacity:1;color-interpolation:sRGB;color-interpolation-filters:linearRGB;fill:#ffffff;fill-opacity:1;fill-rule:nonzero;stroke:none;stroke-width:1.88999999;stroke-linecap:round;stroke-linejoin:miter;stroke-miterlimit:4;stroke-dasharray:none;stroke-dashoffset:0;stroke-opacity:1;marker:none;color-rendering:auto;image-rendering:auto;shape-rendering:auto;text-rendering:auto;enable-background:accumulate" id="rect5745" width="439.99994" height="800" x="1526.4584" y="-31.708324" inkscape:export-xdpi="109.09093" inkscape:export-ydpi="109.09093"/>
    <rect style="color:#000000;clip-rule:nonzero;display:inline;overflow:visible;visibility:visible;opacity:1;color-interpolation:sRGB;color-interpolation-filters:linearRGB;fill:#f1f1f1;fill-opacity:1;fill-rule:nonzero;stroke:none;stroke-width:1;stroke-linecap:round;stroke-linejoin:miter;stroke-miterlimit:4;stroke-dasharray:none;stroke-dashoffset:0;stroke-opacity:1;marker:none;color-rendering:auto;image-rendering:auto;shape-rendering:auto;text-rendering:auto;enable-background:accumulate" id="rect5106" width="379.99994" height="410" x="1556.4583" y="28.291677"/>
    <rect y="28.291677" x="1556.4583" height="410" width="190" id="rect5108" style="color:#000000;clip-rule:nonzero;display:inline;overflow:visible;visibility:visible;opacity:1;color-interpolation:sRGB;color-interpolation-filters:linearRGB;fill:#d1dbc9;fill-opacity:1;fill-rule:nonzero;stroke:none;stroke-width:1;stroke-linecap:round;stroke-linejoin:miter;stroke-miterlimit:4;stroke-dasharray:none;stroke-dashoffset:0;stroke-opacity:1;marker:none;color-rendering:auto;image-rendering:auto;shape-rendering:auto;text-rendering:auto;enable-background:accumulate"/>
    <ellipse style="color:#000000;clip-rule:nonzero;display:inline;overflow:visible;visibility:visible;opacity:1;color-interpolation:sRGB;color-interpolation-filters:linearRGB;fill:#ffb2ac;fill-opacity:1;fill-rule:nonzero;stroke:none;stroke-width:0.5;stroke-linecap:round;stroke-linejoin:miter;stroke-miterlimit:4;stroke-dasharray:none;stroke-dashoffset:0;stroke-opacity:1;marker:none;color-rendering:auto;image-rendering:auto;shape-rendering:auto;text-rendering:auto;enable-background:accumulate" id="ellipse5110" cx="1746.4583" cy="240.87877" rx="142.72214" ry="126.51584" d="M 1889.1804,240.87877 A 142.72214,126.51584 0 0 1 1746.4583,367.39461 142.72214,126.51584 0 0 1 1603.7361,240.87877 142.72214,126.51584 0 0 1 1746.4583,114.36293 142.72214,126.51584 0 0 1 1889.1804,240.87877 Z"/>
    <g style="stroke:#828282;stroke-opacity:1" transform="translate(749.95238,5.000008)" id="g5112">
      <circle style="color:#000000;clip-rule:nonzero;display:inline;overflow:visible;visibility:visible;opacity:1;color-interpolation:sRGB;color-interpolation-filters:linearRGB;fill:none;fill-opacity:1;fill-rule:nonzero;stroke:#828282;stroke-width:3.77952766;stroke-linecap:round;stroke-linejoin:miter;stroke-miterlimit:4;stroke-dasharray:none;stroke-dashoffset:0;stroke-opacity:1;marker:none;color-rendering:auto;image-rendering:auto;shape-rendering:auto;text-rendering:auto;enable-background:accumulate" id="circle5114" cx="1027.21" cy="319.00592" r="7.4388342" d="m 1034.6488,319.00592 a 7.4388342,7.4388342 0 0 1 -7.4388,7.43883 7.4388342,7.4388342 0 0 1 -7.4389,-7.43883 7.4388342,7.4388342 0 0 1 7.4389,-7.43883 7.4388342,7.4388342 0 0 1 7.4388,7.43883 z"/>
      <circle r="7.4388342" cy="267.57739" cx="1075.3632" id="circle5116" style="color:#000000;clip-rule:nonzero;display:inline;overflow:visible;visibility:visible;opacity:1;color-interpolation:sRGB;color-interpolation-filters:linearRGB;fill:none;fill-opacity:1;fill-rule:nonzero;stroke:#828282;stroke-width:3.77952766;stroke-linecap:round;stroke-linejoin:miter;stroke-miterlimit:4;stroke-dasharray:none;stroke-dashoffset:0;stroke-opacity:1;marker:none;color-rendering:auto;image-rendering:auto;shape-rendering:auto;text-rendering:auto;enable-background:accumulate" d="m 1082.802,267.57739 a 7.4388342,7.4388342 0 0 1 -7.4388,7.43884 7.4388342,7.4388342 0 0 1 -7.4389,-7.43884 7.4388342,7.4388342 0 0 1 7.4389,-7.43883 7.4388342,7.4388342 0 0 1 7.4388,7.43883 z"/>
      <circle style="color:#000000;clip-rule:nonzero;display:inline;overflow:visible;visibility:visible;opacity:1;color-interpolation:sRGB;color-interpolation-filters:linearRGB;fill:none;fill-opacity:1;fill-rule:nonzero;stroke:#828282;stroke-width:3.77952766;stroke-linecap:round;stroke-linejoin:miter;stroke-miterlimit:4;stroke-dasharray:none;stroke-dashoffset:0;stroke-opacity:1;marker:none;color-rendering:auto;image-rendering:auto;shape-rendering:auto;text-rendering:auto;enable-background:accumulate" id="circle5118" cx="1023.2203" cy="169.00595" r="7.4388342" d="m 1030.6591,169.00595 a 7.4388342,7.4388342 0 0 1 -7.4388,7.43884 7.4388342,7.4388342 0 0 1 -7.4389,-7.43884 7.4388342,7.4388342 0 0 1 7.4389,-7.43883 7.4388342,7.4388342 0 0 1 7.4388,7.43883 z"/>
      <circle r="7.4388342" cy="79.426682" cx="1051.964" id="circle5120" style="color:#000000;clip-rule:nonzero;display:inline;overflow:visible;visibility:visible;opacity:1;color-interpolation:sRGB;color-interpolation-filters:linearRGB;fill:none;fill-opacity:1;fill-rule:nonzero;stroke:#828282;stroke-width:3.77952766;stroke-linecap:round;stroke-linejoin:miter;stroke-miterlimit:4;stroke-dasharray:none;stroke-dashoffset:0;stroke-opacity:1;marker:none;color-rendering:auto;image-rendering:auto;shape-rendering:auto;text-rendering:auto;enable-background:accumulate" d="m 1059.4028,79.426682 a 7.4388342,7.4388342 0 0 1 -7.4388,7.438834 7.4388342,7.4388342 0 0 1 -7.4388,-7.438834 7.4388342,7.4388342 0 0 1 7.4388,-7.438835 7.4388342,7.4388342 0 0 1 7.4388,7.438835 z"/>
      <circle r="7.4388342" cy="92.668907" cx="1139.4114" id="circle5122" style="color:#000000;clip-rule:nonzero;display:inline;overflow:visible;visibility:visible;opacity:1;color-interpolation:sRGB;color-interpolation-filters:linearRGB;fill:none;fill-opacity:1;fill-rule:nonzero;stroke:#828282;stroke-width:3.77952766;stroke-linecap:round;stroke-linejoin:miter;stroke-miterlimit:4;stroke-dasharray:none;stroke-dashoffset:0;stroke-opacity:1;marker:none;color-rendering:auto;image-rendering:auto;shape-rendering:auto;text-rendering:auto;enable-background:accumulate" d="m 1146.8502,92.668907 a 7.4388342,7.4388342 0 0 1 -7.4388,7.438833 7.4388342,7.4388342 0 0 1 -7.4389,-7.438833 7.4388342,7.4388342 0 0 1 7.4389,-7.438834 7.4388342,7.4388342 0 0 1 7.4388,7.438834 z"/>
      <circle style="color:#000000;clip-rule:nonzero;display:inline;overflow:visible;visibility:visible;opacity:1;color-interpolation:sRGB;color-interpolation-filters:linearRGB;fill:none;fill-opacity:1;fill-rule:nonzero;stroke:#828282;stroke-width:3.77952766;stroke-linecap:round;stroke-linejoin:miter;stroke-miterlimit:4;stroke-dasharray:none;stroke-dashoffset:0;stroke-opacity:1;marker:none;color-rendering:auto;image-rendering:auto;shape-rendering:auto;text-rendering:auto;enable-background:accumulate" id="circle5124" cx="1148.0547" cy="181.46803" r="7.4388342" d="m 1155.4935,181.46803 a 7.4388342,7.4388342 0 0 1 -7.4388,7.43884 7.4388342,7.4388342 0 0 1 -7.4388,-7.43884 7.4388342,7.4388342 0 0 1 7.4388,-7.43883 7.4388342,7.4388342 0 0 1 7.4388,7.43883 z"/>
      <circle r="7.4388342" cy="311.59933" cx="1146.7065" id="circle5126" style="color:#000000;clip-rule:nonzero;display:inline;overflow:visible;visibility:visible;opacity:1;color-interpolation:sRGB;color-interpolation-filters:linearRGB;fill:none;fill-opacity:1;fill-rule:nonzero;stroke:#828282;stroke-width:3.77952766;stroke-linecap:round;stroke-linejoin:miter;stroke-miterlimit:4;stroke-dasharray:none;stroke-dashoffset:0;stroke-opacity:1;marker:none;color-rendering:auto;image-rendering:auto;shape-rendering:auto;text-rendering:auto;enable-background:accumulate" d="m 1154.1454,311.59933 a 7.4388342,7.4388342 0 0 1 -7.4389,7.43884 7.4388342,7.4388342 0 0 1 -7.4388,-7.43884 7.4388342,7.4388342 0 0 1 7.4388,-7.43883 7.4388342,7.4388342 0 0 1 7.4389,7.43883 z"/>
      <circle style="color:#000000;clip-rule:nonzero;display:inline;overflow:visible;visibility:visible;opacity:1;color-interpolation:sRGB;color-interpolation-filters:linearRGB;fill:none;fill-opacity:1;fill-rule:nonzero;stroke:#828282;stroke-width:3.77952766;stroke-linecap:round;stroke-linejoin:miter;stroke-miterlimit:4;stroke-dasharray:none;stroke-dashoffset:0;stroke-opacity:1;marker:none;color-rendering:auto;image-rendering:auto;shape-rendering:auto;text-rendering:auto;enable-background:accumulate" id="circle5128" cx="1137.261" cy="402.27258" r="7.4388342" d="m 1144.6998,402.27258 a 7.4388342,7.4388342 0 0 1 -7.4388,7.43884 7.4388342,7.4388342 0 0 1 -7.4388,-7.43884 7.4388342,7.4388342 0 0 1 7.4388,-7.43883 7.4388342,7.4388342 0 0 1 7.4388,7.43883 z"/>
      <circle r="7.4388342" cy="373.90781" cx="1085.0675" id="circle5130" style="color:#000000;clip-rule:nonzero;display:inline;overflow:visible;visibility:visible;opacity:1;color-interpolation:sRGB;color-interpolation-filters:linearRGB;fill:none;fill-opacity:1;fill-rule:nonzero;stroke:#828282;stroke-width:3.77952766;stroke-linecap:round;stroke-linejoin:miter;stroke-miterlimit:4;stroke-dasharray:none;stroke-dashoffset:0;stroke-opacity:1;marker:none;color-rendering:auto;image-rendering:auto;shape-rendering:auto;text-rendering:auto;enable-background:accumulate" d="m 1092.5063,373.90781 a 7.4388342,7.4388342 0 0 1 -7.4388,7.43883 7.4388342,7.4388342 0 0 1 -7.4388,-7.43883 7.4388342,7.4388342 0 0 1 7.4388,-7.43884 7.4388342,7.4388342 0 0 1 7.4388,7.43884 z"/>
      <circle style="color:#000000;clip-rule:nonzero;display:inline;overflow:visible;visibility:visible;opacity:1;color-interpolation:sRGB;color-interpolation-filters:linearRGB;fill:none;fill-opacity:1;fill-rule:nonzero;stroke:#828282;stroke-width:3.77952766;stroke-linecap:round;stroke-linejoin:miter;stroke-miterlimit:4;stroke-dasharray:none;stroke-dashoffset:0;stroke-opacity:1;marker:none;color-rendering:auto;image-rendering:auto;shape-rendering:auto;text-rendering:auto;enable-background:accumulate" id="circle5132" cx="1029.4561" cy="400.98758" r="7.4388342" d="m 1036.8949,400.98758 a 7.4388342,7.4388342 0 0 1 -7.4388,7.43883 7.4388342,7.4388342 0 0 1 -7.4389,-7.43883 7.4388342,7.4388342 0 0 1 7.4389,-7.43883 7.4388342,7.4388342 0 0 1 7.4388,7.43883 z"/>
    </g>
    <path style="color:#000000;clip-rule:nonzero;display:inline;overflow:visible;visibility:visible;opacity:1;color-interpolation:sRGB;color-interpolation-filters:linearRGB;fill:#c9f6ab;fill-opacity:1;fill-rule:nonzero;stroke:none;stroke-width:0.5;stroke-linecap:round;stroke-linejoin:miter;stroke-miterlimit:4;stroke-dasharray:none;stroke-dashoffset:0;stroke-opacity:1;marker:none;color-rendering:auto;image-rendering:auto;shape-rendering:auto;text-rendering:auto;enable-background:accumulate" d="m 1746.4583,114.36198 a 142.72214,126.51584 0 0 0 -142.7227,126.51758 142.72214,126.51584 0 0 0 142.7227,126.51563 l 0,-253.03321 z" id="ellipse5200" inkscape:connector-curvature="0"/>
    <ellipse ry="126.51584" rx="142.72214" cy="240.87877" cx="1746.4583" id="ellipse5136" style="color:#000000;clip-rule:nonzero;display:inline;overflow:visible;visibility:visible;opacity:1;color-interpolation:sRGB;color-interpolation-filters:linearRGB;fill:none;fill-opacity:1;fill-rule:nonzero;stroke:#000000;stroke-width:2.31765056;stroke-linecap:round;stroke-linejoin:miter;stroke-miterlimit:4;stroke-dasharray:none;stroke-dashoffset:0;stroke-opacity:1;marker:none;color-rendering:auto;image-rendering:auto;shape-rendering:auto;text-rendering:auto;enable-background:accumulate" d="M 1889.1804,240.87877 A 142.72214,126.51584 0 0 1 1746.4583,367.39461 142.72214,126.51584 0 0 1 1603.7361,240.87877 142.72214,126.51584 0 0 1 1746.4583,114.36293 142.72214,126.51584 0 0 1 1889.1804,240.87877 Z"/>
    <g transform="translate(743.95238,3.000008)" style="fill:#828282;fill-opacity:1;stroke:none" id="g5138">
      <circle r="7.4388342" cy="86.863098" cx="842.50592" id="circle5140" style="color:#000000;clip-rule:nonzero;display:inline;overflow:visible;visibility:visible;opacity:1;color-interpolation:sRGB;color-interpolation-filters:linearRGB;fill:#828282;fill-opacity:1;fill-rule:nonzero;stroke:none;stroke-width:3.77952766;stroke-linecap:round;stroke-linejoin:miter;stroke-miterlimit:4;stroke-dasharray:none;stroke-dashoffset:0;stroke-opacity:1;marker:none;color-rendering:auto;image-rendering:auto;shape-rendering:auto;text-rendering:auto;enable-background:accumulate" d="m 849.94475,86.863098 a 7.4388342,7.4388342 0 0 1 -7.43883,7.438834 7.4388342,7.4388342 0 0 1 -7.43883,-7.438834 7.4388342,7.4388342 0 0 1 7.43883,-7.438834 7.4388342,7.4388342 0 0 1 7.43883,7.438834 z"/>
      <circle style="color:#000000;clip-rule:nonzero;display:inline;overflow:visible;visibility:visible;opacity:1;color-interpolation:sRGB;color-interpolation-filters:linearRGB;fill:#828282;fill-opacity:1;fill-rule:nonzero;stroke:none;stroke-width:3.77952766;stroke-linecap:round;stroke-linejoin:miter;stroke-miterlimit:4;stroke-dasharray:none;stroke-dashoffset:0;stroke-opacity:1;marker:none;color-rendering:auto;image-rendering:auto;shape-rendering:auto;text-rendering:auto;enable-background:accumulate" id="circle5142" cx="962.50592" cy="88.291672" r="7.4388342" d="m 969.94475,88.291672 a 7.4388342,7.4388342 0 0 1 -7.43883,7.438834 7.4388342,7.4388342 0 0 1 -7.43883,-7.438834 7.4388342,7.4388342 0 0 1 7.43883,-7.438834 7.4388342,7.4388342 0 0 1 7.43883,7.438834 z"/>
      <circle style="color:#000000;clip-rule:nonzero;display:inline;overflow:visible;visibility:visible;opacity:1;color-interpolation:sRGB;color-interpolation-filters:linearRGB;fill:#828282;fill-opacity:1;fill-rule:nonzero;stroke:none;stroke-width:3.77952766;stroke-linecap:round;stroke-linejoin:miter;stroke-miterlimit:4;stroke-dasharray:none;stroke-dashoffset:0;stroke-opacity:1;marker:none;color-rendering:auto;image-rendering:auto;shape-rendering:auto;text-rendering:auto;enable-background:accumulate" id="circle5144" cx="882.50592" cy="95.730507" r="7.4388342" d="m 889.94475,95.730507 a 7.4388342,7.4388342 0 0 1 -7.43883,7.438833 7.4388342,7.4388342 0 0 1 -7.43883,-7.438833 7.4388342,7.4388342 0 0 1 7.43883,-7.438834 7.4388342,7.4388342 0 0 1 7.43883,7.438834 z"/>
      <circle r="7.4388342" cy="158.29167" cx="842.50592" id="circle5146" style="color:#000000;clip-rule:nonzero;display:inline;overflow:visible;visibility:visible;opacity:1;color-interpolation:sRGB;color-interpolation-filters:linearRGB;fill:#828282;fill-opacity:1;fill-rule:nonzero;stroke:none;stroke-width:3.77952766;stroke-linecap:round;stroke-linejoin:miter;stroke-miterlimit:4;stroke-dasharray:none;stroke-dashoffset:0;stroke-opacity:1;marker:none;color-rendering:auto;image-rendering:auto;shape-rendering:auto;text-rendering:auto;enable-background:accumulate" d="m 849.94475,158.29167 a 7.4388342,7.4388342 0 0 1 -7.43883,7.43884 7.4388342,7.4388342 0 0 1 -7.43883,-7.43884 7.4388342,7.4388342 0 0 1 7.43883,-7.43883 7.4388342,7.4388342 0 0 1 7.43883,7.43883 z"/>
      <circle style="color:#000000;clip-rule:nonzero;display:inline;overflow:visible;visibility:visible;opacity:1;color-interpolation:sRGB;color-interpolation-filters:linearRGB;fill:#828282;fill-opacity:1;fill-rule:nonzero;stroke:none;stroke-width:3.77952766;stroke-linecap:round;stroke-linejoin:miter;stroke-miterlimit:4;stroke-dasharray:none;stroke-dashoffset:0;stroke-opacity:1;marker:none;color-rendering:auto;image-rendering:auto;shape-rendering:auto;text-rendering:auto;enable-background:accumulate" id="circle5148" cx="857.50592" cy="320.85284" r="7.4388342" d="m 864.94475,320.85284 a 7.4388342,7.4388342 0 0 1 -7.43883,7.43884 7.4388342,7.4388342 0 0 1 -7.43883,-7.43884 7.4388342,7.4388342 0 0 1 7.43883,-7.43883 7.4388342,7.4388342 0 0 1 7.43883,7.43883 z"/>
      <circle style="color:#000000;clip-rule:nonzero;display:inline;overflow:visible;visibility:visible;opacity:1;color-interpolation:sRGB;color-interpolation-filters:linearRGB;fill:#828282;fill-opacity:1;fill-rule:nonzero;stroke:none;stroke-width:3.77952766;stroke-linecap:round;stroke-linejoin:miter;stroke-miterlimit:4;stroke-dasharray:none;stroke-dashoffset:0;stroke-opacity:1;marker:none;color-rendering:auto;image-rendering:auto;shape-rendering:auto;text-rendering:auto;enable-background:accumulate" id="circle5150" cx="843.69702" cy="381.95462" r="7.4388342" d="m 851.13586,381.95462 a 7.4388342,7.4388342 0 0 1 -7.43884,7.43883 7.4388342,7.4388342 0 0 1 -7.43883,-7.43883 7.4388342,7.4388342 0 0 1 7.43883,-7.43883 7.4388342,7.4388342 0 0 1 7.43884,7.43883 z"/>
      <circle r="7.4388342" cy="385.52609" cx="925.12561" id="circle5152" style="color:#000000;clip-rule:nonzero;display:inline;overflow:visible;visibility:visible;opacity:1;color-interpolation:sRGB;color-interpolation-filters:linearRGB;fill:#828282;fill-opacity:1;fill-rule:nonzero;stroke:none;stroke-width:3.77952766;stroke-linecap:round;stroke-linejoin:miter;stroke-miterlimit:4;stroke-dasharray:none;stroke-dashoffset:0;stroke-opacity:1;marker:none;color-rendering:auto;image-rendering:auto;shape-rendering:auto;text-rendering:auto;enable-background:accumulate" d="m 932.56444,385.52609 a 7.4388342,7.4388342 0 0 1 -7.43883,7.43884 7.4388342,7.4388342 0 0 1 -7.43883,-7.43884 7.4388342,7.4388342 0 0 1 7.43883,-7.43883 7.4388342,7.4388342 0 0 1 7.43883,7.43883 z"/>
      <circle r="7.4388342" cy="188.11198" cx="919.8595" id="circle5154" style="color:#000000;clip-rule:nonzero;display:inline;overflow:visible;visibility:visible;opacity:1;color-interpolation:sRGB;color-interpolation-filters:linearRGB;fill:#828282;fill-opacity:1;fill-rule:nonzero;stroke:none;stroke-width:3.77952766;stroke-linecap:round;stroke-linejoin:miter;stroke-miterlimit:4;stroke-dasharray:none;stroke-dashoffset:0;stroke-opacity:1;marker:none;color-rendering:auto;image-rendering:auto;shape-rendering:auto;text-rendering:auto;enable-background:accumulate" d="m 927.29833,188.11198 a 7.4388342,7.4388342 0 0 1 -7.43883,7.43884 7.4388342,7.4388342 0 0 1 -7.43884,-7.43884 7.4388342,7.4388342 0 0 1 7.43884,-7.43883 7.4388342,7.4388342 0 0 1 7.43883,7.43883 z"/>
      <circle style="color:#000000;clip-rule:nonzero;display:inline;overflow:visible;visibility:visible;opacity:1;color-interpolation:sRGB;color-interpolation-filters:linearRGB;fill:#828282;fill-opacity:1;fill-rule:nonzero;stroke:none;stroke-width:3.77952766;stroke-linecap:round;stroke-linejoin:miter;stroke-miterlimit:4;stroke-dasharray:none;stroke-dashoffset:0;stroke-opacity:1;marker:none;color-rendering:auto;image-rendering:auto;shape-rendering:auto;text-rendering:auto;enable-background:accumulate" id="circle5156" cx="961.09839" cy="272.7562" r="7.4388342" d="m 968.53722,272.7562 a 7.4388342,7.4388342 0 0 1 -7.43883,7.43883 7.4388342,7.4388342 0 0 1 -7.43884,-7.43883 7.4388342,7.4388342 0 0 1 7.43884,-7.43884 7.4388342,7.4388342 0 0 1 7.43883,7.43884 z"/>
      <circle r="7.4388342" cy="327.0054" cx="971.9516" id="circle5158" style="color:#000000;clip-rule:nonzero;display:inline;overflow:visible;visibility:visible;opacity:1;color-interpolation:sRGB;color-interpolation-filters:linearRGB;fill:#828282;fill-opacity:1;fill-rule:nonzero;stroke:none;stroke-width:3.77952766;stroke-linecap:round;stroke-linejoin:miter;stroke-miterlimit:4;stroke-dasharray:none;stroke-dashoffset:0;stroke-opacity:1;marker:none;color-rendering:auto;image-rendering:auto;shape-rendering:auto;text-rendering:auto;enable-background:accumulate" d="m 979.39043,327.0054 a 7.4388342,7.4388342 0 0 1 -7.43883,7.43884 7.4388342,7.4388342 0 0 1 -7.43884,-7.43884 7.4388342,7.4388342 0 0 1 7.43884,-7.43883 7.4388342,7.4388342 0 0 1 7.43883,7.43883 z"/>
      <circle style="color:#000000;clip-rule:nonzero;display:inline;overflow:visible;visibility:visible;opacity:1;color-interpolation:sRGB;color-interpolation-filters:linearRGB;fill:#828282;fill-opacity:1;fill-rule:nonzero;stroke:none;stroke-width:3.77952766;stroke-linecap:round;stroke-linejoin:miter;stroke-miterlimit:4;stroke-dasharray:none;stroke-dashoffset:0;stroke-opacity:1;marker:none;color-rendering:auto;image-rendering:auto;shape-rendering:auto;text-rendering:auto;enable-background:accumulate" id="circle5160" cx="964.62775" cy="160.21045" r="7.4388342" d="m 972.06658,160.21045 a 7.4388342,7.4388342 0 0 1 -7.43883,7.43883 7.4388342,7.4388342 0 0 1 -7.43884,-7.43883 7.4388342,7.4388342 0 0 1 7.43884,-7.43883 7.4388342,7.4388342 0 0 1 7.43883,7.43883 z"/>
      <circle r="7.4388342" cy="287.90851" cx="913.62122" id="circle5226" style="color:#000000;clip-rule:nonzero;display:inline;overflow:visible;visibility:visible;opacity:1;color-interpolation:sRGB;color-interpolation-filters:linearRGB;fill:#828282;fill-opacity:1;fill-rule:nonzero;stroke:none;stroke-width:3.77952766;stroke-linecap:round;stroke-linejoin:miter;stroke-miterlimit:4;stroke-dasharray:none;stroke-dashoffset:0;stroke-opacity:1;marker:none;color-rendering:auto;image-rendering:auto;shape-rendering:auto;text-rendering:auto;enable-background:accumulate" d="m 921.06005,287.90851 a 7.4388342,7.4388342 0 0 1 -7.43883,7.43883 7.4388342,7.4388342 0 0 1 -7.43884,-7.43883 7.4388342,7.4388342 0 0 1 7.43884,-7.43884 7.4388342,7.4388342 0 0 1 7.43883,7.43884 z"/>
    </g>
    <path sodipodi:nodetypes="cccc" inkscape:connector-curvature="0" id="path5162" d="m 1560.4583,18.291678 0,-10 182,0 0,10" style="fill:none;fill-rule:evenodd;stroke:#000000;stroke-width:1.88976383;stroke-linecap:butt;stroke-linejoin:miter;stroke-opacity:1"/>
    <text sodipodi:linespacing="110%" id="text5164" y="-1.7083216" x="1651.4583" style="color:#000000;font-style:normal;font-variant:normal;font-weight:normal;font-stretch:normal;font-size:16px;line-height:110.00000238%;font-family:'DejaVu Sans';-inkscape-font-specification:'DejaVu Sans';text-align:center;writing-mode:lr-tb;text-anchor:middle;clip-rule:nonzero;display:inline;overflow:visible;visibility:visible;opacity:1;color-interpolation:sRGB;color-interpolation-filters:linearRGB;fill:#000000;fill-opacity:1;fill-rule:nonzero;stroke:none;stroke-width:0.5;stroke-linecap:round;stroke-linejoin:miter;stroke-miterlimit:4;stroke-dasharray:none;stroke-dashoffset:0;stroke-opacity:1;marker:none;color-rendering:auto;image-rendering:auto;shape-rendering:auto;text-rendering:auto;enable-background:accumulate" xml:space="preserve"><tspan id="tspan5166" style="font-style:normal;font-variant:normal;font-weight:normal;font-stretch:normal;font-size:16px;font-family:'DejaVu Sans';-inkscape-font-specification:'DejaVu Sans';text-align:center;text-anchor:middle;fill:#000000;stroke:none;stroke-width:0.5" y="-1.7083216" x="1651.4583" sodipodi:role="line">relevant elements</tspan></text>
    <path sodipodi:nodetypes="cc" inkscape:connector-curvature="0" id="path5168" d="m 1690.4499,463.29168 30.7471,-97.8939" style="fill:none;fill-rule:evenodd;stroke:#000000;stroke-width:1.88976383;stroke-linecap:butt;stroke-linejoin:miter;stroke-opacity:1"/>
    <text xml:space="preserve" style="color:#000000;font-style:normal;font-variant:normal;font-weight:normal;font-stretch:normal;font-size:16px;line-height:110.00000238%;font-family:'DejaVu Sans';-inkscape-font-specification:'DejaVu Sans';text-align:center;writing-mode:lr-tb;text-anchor:middle;clip-rule:nonzero;display:inline;overflow:visible;visibility:visible;opacity:1;color-interpolation:sRGB;color-interpolation-filters:linearRGB;fill:#000000;fill-opacity:1;fill-rule:nonzero;stroke:none;stroke-width:0.5;stroke-linecap:round;stroke-linejoin:miter;stroke-miterlimit:4;stroke-dasharray:none;stroke-dashoffset:0;stroke-opacity:1;marker:none;color-rendering:auto;image-rendering:auto;shape-rendering:auto;text-rendering:auto;enable-background:accumulate" x="1684.3156" y="485.57739" id="text5170" sodipodi:linespacing="110%"><tspan sodipodi:role="line" x="1684.3156" y="485.57739" style="font-style:normal;font-variant:normal;font-weight:normal;font-stretch:normal;font-size:16px;font-family:'DejaVu Sans';-inkscape-font-specification:'DejaVu Sans';text-align:center;text-anchor:middle;fill:#000000;stroke:none;stroke-width:0.5" id="tspan5172">selected elements</tspan></text>
    <text xml:space="preserve" style="color:#000000;font-style:normal;font-variant:normal;font-weight:normal;font-stretch:normal;font-size:16px;line-height:110.00000238%;font-family:'DejaVu Sans';-inkscape-font-specification:'DejaVu Sans';text-align:start;writing-mode:lr-tb;text-anchor:start;clip-rule:nonzero;display:inline;overflow:visible;visibility:visible;opacity:1;color-interpolation:sRGB;color-interpolation-filters:linearRGB;fill:#882620;fill-opacity:1;fill-rule:nonzero;stroke:none;stroke-width:0.5;stroke-linecap:round;stroke-linejoin:miter;stroke-miterlimit:4;stroke-dasharray:none;stroke-dashoffset:0;stroke-opacity:1;marker:none;color-rendering:auto;image-rendering:auto;shape-rendering:auto;text-rendering:auto;enable-background:accumulate" x="1757.6804" y="238.2244" id="text5176" sodipodi:linespacing="110%"><tspan sodipodi:role="line" x="1757.6804" y="238.2244" style="font-style:normal;font-variant:normal;font-weight:normal;font-stretch:normal;font-size:16px;font-family:'DejaVu Sans';-inkscape-font-specification:'DejaVu Sans';text-align:start;text-anchor:start;fill:#882620;fill-opacity:1;stroke:none;stroke-width:0.5" id="tspan5188">false positives</tspan></text>
    <text sodipodi:linespacing="110%" id="text5190" y="238.2244" x="1626.9662" style="color:#000000;font-style:normal;font-variant:normal;font-weight:normal;font-stretch:normal;font-size:16px;line-height:110.00000238%;font-family:'DejaVu Sans';-inkscape-font-specification:'DejaVu Sans';text-align:start;writing-mode:lr-tb;text-anchor:start;clip-rule:nonzero;display:inline;overflow:visible;visibility:visible;opacity:1;color-interpolation:sRGB;color-interpolation-filters:linearRGB;fill:#3e6b21;fill-opacity:1;fill-rule:nonzero;stroke:none;stroke-width:0.5;stroke-linecap:round;stroke-linejoin:miter;stroke-miterlimit:4;stroke-dasharray:none;stroke-dashoffset:0;stroke-opacity:1;marker:none;color-rendering:auto;image-rendering:auto;shape-rendering:auto;text-rendering:auto;enable-background:accumulate" xml:space="preserve"><tspan id="tspan5194" style="font-style:normal;font-variant:normal;font-weight:normal;font-stretch:normal;font-size:16px;font-family:'DejaVu Sans';-inkscape-font-specification:'DejaVu Sans';text-align:start;text-anchor:start;fill:#3e6b21;fill-opacity:1;stroke:none;stroke-width:0.5" y="238.2244" x="1626.9662" sodipodi:role="line">true positives</tspan></text>
    <text xml:space="preserve" style="color:#000000;font-style:normal;font-variant:normal;font-weight:normal;font-stretch:normal;font-size:16px;line-height:110.00000238%;font-family:'DejaVu Sans';-inkscape-font-specification:'DejaVu Sans';text-align:start;writing-mode:lr-tb;text-anchor:start;clip-rule:nonzero;display:inline;overflow:visible;visibility:visible;opacity:1;color-interpolation:sRGB;color-interpolation-filters:linearRGB;fill:#435438;fill-opacity:1;fill-rule:nonzero;stroke:none;stroke-width:0.5;stroke-linecap:round;stroke-linejoin:miter;stroke-miterlimit:4;stroke-dasharray:none;stroke-dashoffset:0;stroke-opacity:1;marker:none;color-rendering:auto;image-rendering:auto;shape-rendering:auto;text-rendering:auto;enable-background:accumulate" x="1590.9192" y="55.224403" id="text5205" sodipodi:linespacing="110%"><tspan sodipodi:role="line" x="1590.9192" y="55.224403" style="font-style:normal;font-variant:normal;font-weight:normal;font-stretch:normal;font-size:16px;font-family:'DejaVu Sans';-inkscape-font-specification:'DejaVu Sans';text-align:start;text-anchor:start;fill:#435438;fill-opacity:1;stroke:none;stroke-width:0.5" id="tspan5207">false negatives</tspan></text>
    <text sodipodi:linespacing="110%" id="text5209" y="55.224403" x="1783.4817" style="color:#000000;font-style:normal;font-variant:normal;font-weight:normal;font-stretch:normal;font-size:16px;line-height:110.00000238%;font-family:'DejaVu Sans';-inkscape-font-specification:'DejaVu Sans';text-align:start;writing-mode:lr-tb;text-anchor:start;clip-rule:nonzero;display:inline;overflow:visible;visibility:visible;opacity:1;color-interpolation:sRGB;color-interpolation-filters:linearRGB;fill:#333333;fill-opacity:1;fill-rule:nonzero;stroke:none;stroke-width:0.5;stroke-linecap:round;stroke-linejoin:miter;stroke-miterlimit:4;stroke-dasharray:none;stroke-dashoffset:0;stroke-opacity:1;marker:none;color-rendering:auto;image-rendering:auto;shape-rendering:auto;text-rendering:auto;enable-background:accumulate" xml:space="preserve"><tspan id="tspan5211" style="font-style:normal;font-variant:normal;font-weight:normal;font-stretch:normal;font-size:16px;font-family:'DejaVu Sans';-inkscape-font-specification:'DejaVu Sans';text-align:start;text-anchor:start;fill:#333333;fill-opacity:1;stroke:none;stroke-width:0.5" y="55.224403" x="1783.4817" sodipodi:role="line">true negatives</tspan></text>
  </g>
<script xmlns=""/></svg>