<svg width="418pt" height="172pt" viewBox="0.00 0.00 417.50 172.00" xmlns="http://www.w3.org/2000/svg" xmlns:xlink="http://www.w3.org/1999/xlink">
<g id="graph0" class="graph" transform="scale(1 1) rotate(0) translate(4 168)">
<title>G</title>

<!-- reif_0 -->
<g id="node1" class="node">
<title>reif_0</title>
<ellipse fill="#000000" stroke="#000000" cx="241.5" cy="-89" rx="0" ry="0"></ellipse>
</g>
<!-- Tim Berners&#45;Lee\n[ http://dbpedia.org/resource/Tim_berners&#45;lee] -->
<g id="node3" class="node">
<title>Tim Berners-Lee\n[ http://dbpedia.org/resource/Tim_berners-lee]</title>
<polygon fill="none" stroke="#000000" points="269,-38 0,-38 0,0 269,0 269,-38"></polygon>
<text text-anchor="middle" x="134.5" y="-22.8" font-family="Times,serif" font-size="14.00" fill="#000000">Tim Berners-Lee</text>
<text text-anchor="middle" x="134.5" y="-7.8" font-family="Times,serif" font-size="14.00" fill="#000000">[ http://dbpedia.org/resource/Tim_berners-lee]</text>
</g>
<!-- reif_0&#45;&gt;Tim Berners&#45;Lee\n[ http://dbpedia.org/resource/Tim_berners&#45;lee] -->
<g id="edge2" class="edge">
<title>reif_0-&gt;Tim Berners-Lee\n[ http://dbpedia.org/resource/Tim_berners-lee]</title>
<path fill="none" stroke="#000000" d="M241.4224,-88.9493C239.5045,-87.6945 202.3902,-63.4141 172.4211,-43.8082"></path>
<polygon fill="#000000" stroke="#000000" points="174.0802,-40.7111 163.7957,-38.1654 170.2479,-46.569 174.0802,-40.7111"></polygon>
<text text-anchor="middle" x="247.5" y="-59.8" font-family="Times,serif" font-size="14.00" fill="#000000">was invented</text>
</g>
<!-- 0 -->
<g id="node4" class="node">
<title>0</title>
<polygon fill="none" stroke="#000000" points="409.5,-37 287.5,-37 287.5,-1 409.5,-1 409.5,-37"></polygon>
<text text-anchor="middle" x="348.5" y="-15.3" font-family="Times,serif" font-size="14.00" fill="#000000">?/?/1989 - ?/?/1989</text>
</g>
<!-- reif_0&#45;&gt;0 -->
<g id="edge3" class="edge">
<title>reif_0-&gt;0</title>
<path fill="none" stroke="#000000" stroke-dasharray="1,5" d="M241.5785,-88.9804C243.1896,-88.5754 269.2524,-81.9246 287.5,-71 300.0591,-63.481 312.5961,-53.3618 323.0087,-44.0486"></path>
<polygon fill="#000000" stroke="#000000" points="325.5299,-46.4851 330.5224,-37.1403 320.792,-41.3321 325.5299,-46.4851"></polygon>
<text text-anchor="middle" x="321" y="-59.8" font-family="Times,serif" font-size="14.00" fill="#000000">time</text>
</g>
<!-- The Web\n[ http://dbpedia.org/resource/The_web] -->
<g id="node2" class="node">
<title>The Web\n[ http://dbpedia.org/resource/The_web]</title>
<polygon fill="none" stroke="#000000" points="356.5,-164 126.5,-164 126.5,-126 356.5,-126 356.5,-164"></polygon>
<text text-anchor="middle" x="241.5" y="-148.8" font-family="Times,serif" font-size="14.00" fill="#000000">The Web</text>
<text text-anchor="middle" x="241.5" y="-133.8" font-family="Times,serif" font-size="14.00" fill="#000000">[ http://dbpedia.org/resource/The_web]</text>
</g>
<!-- The Web\n[ http://dbpedia.org/resource/The_web]&#45;&gt;reif_0 -->
<g id="edge1" class="edge">
<title>The Web\n[ http://dbpedia.org/resource/The_web]-&gt;reif_0</title>
<path fill="none" stroke="#000000" d="M241.5,-125.728C241.5,-110.0354 241.5,-90.2788 241.5,-89.0594"></path>
</g>
</g>
</svg>